<svg
	xmlns="http://www.w3.org/2000/svg"
	xmlns:xlink="http://www.w3.org/1999/xlink"
	width="23px" height="23px">
	<path fill-rule="evenodd" fill="rgb(255, 255, 255)"
		d="M22.902,16.078 C22.813,17.858 22.408,19.435 21.115,20.734 C19.821,22.039 18.251,22.445 16.477,22.529 C14.651,22.633 9.175,22.633 7.347,22.529 C5.575,22.440 4.010,22.034 2.711,20.734 C1.413,19.435 1.008,17.858 0.923,16.078 C0.820,14.242 0.820,8.742 0.923,6.907 C1.013,5.126 1.413,3.548 2.711,2.250 C4.010,0.950 5.580,0.543 7.347,0.459 C9.175,0.355 14.651,0.355 16.477,0.459 C18.251,0.548 19.821,0.955 21.115,2.254 C22.413,3.554 22.818,5.131 22.902,6.912 C23.006,8.747 23.006,14.242 22.902,16.078 ZM20.542,4.942 C20.152,3.966 19.406,3.217 18.438,2.830 C16.987,2.254 13.525,2.384 11.915,2.384 C10.306,2.384 6.849,2.250 5.393,2.830 C4.420,3.222 3.675,3.971 3.289,4.942 C2.716,6.401 2.845,9.877 2.845,11.494 C2.845,13.111 2.711,16.582 3.289,18.046 C3.680,19.023 4.425,19.772 5.393,20.158 C6.844,20.734 10.306,20.604 11.915,20.604 C13.525,20.604 16.982,20.739 18.438,20.158 C19.411,19.767 20.156,19.017 20.542,18.046 C21.120,16.588 20.986,13.111 20.986,11.494 C20.986,9.877 21.120,6.406 20.542,4.942 ZM17.821,6.892 C17.086,6.892 16.497,6.297 16.497,5.562 C16.497,4.828 17.091,4.233 17.821,4.233 C18.552,4.233 19.144,4.828 19.144,5.562 C19.144,6.302 18.552,6.892 17.821,6.892 ZM11.915,17.193 C8.774,17.193 6.242,14.649 6.242,11.494 C6.242,8.340 8.774,5.795 11.915,5.795 C15.055,5.795 17.589,8.340 17.589,11.494 C17.589,14.649 15.055,17.193 11.915,17.193 ZM11.915,7.790 C9.881,7.790 8.227,9.451 8.227,11.494 C8.227,13.538 9.886,15.200 11.915,15.200 C13.945,15.200 15.604,13.538 15.604,11.494 C15.604,9.451 13.950,7.790 11.915,7.790 Z" />
</svg>