<svg
	xmlns="http://www.w3.org/2000/svg"
	xmlns:xlink="http://www.w3.org/1999/xlink"
	width="25px" height="25px">
	<path fill-rule="evenodd" fill="rgb(255, 255, 255)"
		d="M22.524,24.112 L1.822,24.112 C0.874,24.112 0.103,23.360 0.103,22.437 L0.103,2.551 C0.103,1.628 0.874,0.876 1.822,0.876 L22.524,0.876 C23.472,0.876 24.248,1.628 24.248,2.551 L24.248,22.437 C24.248,23.360 23.472,24.112 22.524,24.112 ZM3.822,20.792 L7.400,20.792 L7.405,20.792 L7.405,9.704 L3.822,9.704 L3.822,20.792 ZM5.611,4.195 C4.463,4.195 3.536,5.093 3.536,6.192 C3.536,7.292 4.463,8.190 5.611,8.190 C6.759,8.190 7.686,7.297 7.686,6.192 C7.686,5.093 6.753,4.195 5.611,4.195 ZM20.815,14.714 C20.815,11.727 20.141,9.428 16.520,9.428 C14.779,9.428 13.609,10.347 13.129,11.218 L13.082,11.218 L13.082,9.704 L9.647,9.704 L9.647,20.792 L13.226,20.792 L13.226,15.305 C13.226,13.858 13.513,12.457 15.378,12.457 C17.210,12.457 17.237,14.112 17.237,15.398 L17.237,20.792 L20.815,20.792 L20.815,14.714 Z" />
</svg>