<svg
	xmlns="http://www.w3.org/2000/svg"
	width="23"
	height="21"
	class="c-footerSocialLinkIcon"
>
	<path
		fill-rule="evenodd"
		fill="#FFF"
		d="M20.247 5.556c.015.215.015.431.015.646 0 6.57-4.565 14.139-12.907 14.139-2.57 0-4.958-.817-6.966-2.231.365.046.717.062 1.095.062 2.121 0 4.073-.786 5.632-2.124-1.995-.046-3.665-1.477-4.242-3.446.282.047.562.077.857.077.407 0 .815-.062 1.194-.169-2.078-.462-3.637-2.462-3.637-4.877v-.062c.603.37 1.306.6 2.05.631-1.221-.892-2.022-2.416-2.022-4.139 0-.922.224-1.769.618-2.507 2.233 3.016 5.59 4.984 9.353 5.2a6.143 6.143 0 0 1-.113-1.139c0-2.738 2.023-4.969 4.537-4.969 1.306 0 2.486.6 3.315 1.569a8.46 8.46 0 0 0 2.878-1.2c-.336 1.154-1.052 2.124-1.994 2.739a8.489 8.489 0 0 0 2.612-.769 10.306 10.306 0 0 1-2.275 2.569Z"
	/>
</svg>