<svg
	xmlns="http://www.w3.org/2000/svg"
	width="32"
	height="24"
	class="c-footerSocialLinkIcon"
>
	<path
		fill-rule="evenodd"
		fill="#FFF"
		d="M30.885 19.601a3.949 3.949 0 0 1-2.78 2.832c-2.452.679-12.284.679-12.284.679s-9.831 0-12.282-.679a3.947 3.947 0 0 1-2.78-2.832c-.657-2.537-.657-7.832-.657-7.832s0-5.294.657-7.831c.361-1.4 1.427-2.503 2.78-2.876C5.99.381 15.821.381 15.821.381s9.832 0 12.284.681c1.353.373 2.418 1.476 2.78 2.876.657 2.537.657 7.831.657 7.831s0 5.295-.657 7.832ZM12.606 6.963v9.613l8.217-4.806-8.217-4.807Z"
	/>
</svg>